<svg width="104" height="16" viewBox="0 0 104 16" fill="none" xmlns="http://www.w3.org/2000/svg">
<path d="M7.82665 10.6667C7.89999 10.34 7.76665 9.87337 7.53332 9.64004L5.91332 8.02004C5.40665 7.51337 5.20665 6.97337 5.35332 6.50671C5.50665 6.04004 5.97999 5.72004 6.68665 5.60004L8.76665 5.25337C9.06665 5.20004 9.43332 4.93337 9.57332 4.66004L10.72 2.36004C11.0533 1.70004 11.5067 1.33337 12 1.33337C12.4933 1.33337 12.9467 1.70004 13.28 2.36004L14.4267 4.66004C14.5133 4.83337 14.6933 5.00004 14.8867 5.11337L7.70665 12.2934C7.61332 12.3867 7.45332 12.3 7.47999 12.1667L7.82665 10.6667Z" fill="#F2D374"/>
<path d="M16.4667 9.64001C16.2267 9.88001 16.0934 10.34 16.1734 10.6667L16.6334 12.6733C16.8267 13.5067 16.7067 14.1333 16.2934 14.4333C16.1267 14.5533 15.9267 14.6133 15.6934 14.6133C15.3534 14.6133 14.9534 14.4867 14.5134 14.2267L12.56 13.0667C12.2534 12.8867 11.7467 12.8867 11.44 13.0667L9.4867 14.2267C8.7467 14.66 8.11337 14.7333 7.7067 14.4333C7.55337 14.32 7.44003 14.1667 7.3667 13.9667L15.4734 5.86001C15.78 5.55335 16.2134 5.41335 16.6334 5.48668L17.3067 5.60001C18.0134 5.72001 18.4867 6.04001 18.64 6.50668C18.7867 6.97335 18.5867 7.51335 18.08 8.02001L16.4667 9.64001Z" fill="#F2D374"/>
<path d="M27.8267 10.6667C27.9 10.34 27.7667 9.87337 27.5333 9.64004L25.9133 8.02004C25.4067 7.51337 25.2067 6.97337 25.3533 6.50671C25.5067 6.04004 25.98 5.72004 26.6867 5.60004L28.7667 5.25337C29.0667 5.20004 29.4333 4.93337 29.5733 4.66004L30.72 2.36004C31.0533 1.70004 31.5067 1.33337 32 1.33337C32.4933 1.33337 32.9467 1.70004 33.28 2.36004L34.4267 4.66004C34.5133 4.83337 34.6933 5.00004 34.8867 5.11337L27.7067 12.2934C27.6133 12.3867 27.4533 12.3 27.48 12.1667L27.8267 10.6667Z" fill="#F2D374"/>
<path d="M36.4667 9.64001C36.2267 9.88001 36.0934 10.34 36.1734 10.6667L36.6334 12.6733C36.8267 13.5067 36.7067 14.1333 36.2934 14.4333C36.1267 14.5533 35.9267 14.6133 35.6934 14.6133C35.3534 14.6133 34.9534 14.4867 34.5134 14.2267L32.56 13.0667C32.2534 12.8867 31.7467 12.8867 31.44 13.0667L29.4867 14.2267C28.7467 14.66 28.1134 14.7333 27.7067 14.4333C27.5534 14.32 27.44 14.1667 27.3667 13.9667L35.4734 5.86001C35.78 5.55335 36.2134 5.41335 36.6334 5.48668L37.3067 5.60001C38.0134 5.72001 38.4867 6.04001 38.64 6.50668C38.7867 6.97335 38.5867 7.51335 38.08 8.02001L36.4667 9.64001Z" fill="#F2D374"/>
<path d="M47.8267 10.6667C47.9 10.34 47.7667 9.87337 47.5333 9.64004L45.9133 8.02004C45.4067 7.51337 45.2067 6.97337 45.3533 6.50671C45.5067 6.04004 45.98 5.72004 46.6867 5.60004L48.7667 5.25337C49.0667 5.20004 49.4333 4.93337 49.5733 4.66004L50.72 2.36004C51.0533 1.70004 51.5067 1.33337 52 1.33337C52.4933 1.33337 52.9467 1.70004 53.28 2.36004L54.4267 4.66004C54.5133 4.83337 54.6933 5.00004 54.8867 5.11337L47.7067 12.2934C47.6133 12.3867 47.4533 12.3 47.48 12.1667L47.8267 10.6667Z" fill="#F2D374"/>
<path d="M56.4667 9.64001C56.2267 9.88001 56.0934 10.34 56.1734 10.6667L56.6334 12.6733C56.8267 13.5067 56.7067 14.1333 56.2934 14.4333C56.1267 14.5533 55.9267 14.6133 55.6934 14.6133C55.3534 14.6133 54.9534 14.4867 54.5134 14.2267L52.56 13.0667C52.2534 12.8867 51.7467 12.8867 51.44 13.0667L49.4867 14.2267C48.7467 14.66 48.1134 14.7333 47.7067 14.4333C47.5534 14.32 47.44 14.1667 47.3667 13.9667L55.4734 5.86001C55.78 5.55335 56.2134 5.41335 56.6334 5.48668L57.3067 5.60001C58.0134 5.72001 58.4867 6.04001 58.64 6.50668C58.7867 6.97335 58.5867 7.51335 58.08 8.02001L56.4667 9.64001Z" fill="#F2D374"/>
<path d="M67.8267 10.6667C67.9 10.34 67.7667 9.87337 67.5333 9.64004L65.9133 8.02004C65.4067 7.51337 65.2067 6.97337 65.3533 6.50671C65.5067 6.04004 65.98 5.72004 66.6867 5.60004L68.7667 5.25337C69.0667 5.20004 69.4333 4.93337 69.5733 4.66004L70.72 2.36004C71.0533 1.70004 71.5067 1.33337 72 1.33337C72.4933 1.33337 72.9467 1.70004 73.28 2.36004L74.4267 4.66004C74.5133 4.83337 74.6933 5.00004 74.8867 5.11337L67.7067 12.2934C67.6133 12.3867 67.4533 12.3 67.48 12.1667L67.8267 10.6667Z" fill="#F2D374"/>
<path d="M76.4667 9.64001C76.2267 9.88001 76.0934 10.34 76.1734 10.6667L76.6334 12.6733C76.8267 13.5067 76.7067 14.1333 76.2934 14.4333C76.1267 14.5533 75.9267 14.6133 75.6934 14.6133C75.3534 14.6133 74.9534 14.4867 74.5134 14.2267L72.56 13.0667C72.2534 12.8867 71.7467 12.8867 71.44 13.0667L69.4867 14.2267C68.7467 14.66 68.1134 14.7333 67.7067 14.4333C67.5534 14.32 67.44 14.1667 67.3667 13.9667L75.4734 5.86001C75.78 5.55335 76.2134 5.41335 76.6334 5.48668L77.3067 5.60001C78.0134 5.72001 78.4867 6.04001 78.64 6.50668C78.7867 6.97335 78.5867 7.51335 78.08 8.02001L76.4667 9.64001Z" fill="#F2D374"/>
<path d="M87.8267 10.6667C87.9 10.34 87.7667 9.87337 87.5333 9.64004L85.9133 8.02004C85.4067 7.51337 85.2067 6.97337 85.3533 6.50671C85.5067 6.04004 85.98 5.72004 86.6867 5.60004L88.7667 5.25337C89.0667 5.20004 89.4333 4.93337 89.5733 4.66004L90.72 2.36004C91.0533 1.70004 91.5067 1.33337 92 1.33337C92.4933 1.33337 92.9467 1.70004 93.28 2.36004L94.4267 4.66004C94.5133 4.83337 94.6933 5.00004 94.8867 5.11337L87.7067 12.2934C87.6133 12.3867 87.4533 12.3 87.48 12.1667L87.8267 10.6667Z" fill="#F2D374"/>
<path d="M96.4667 9.64001C96.2267 9.88001 96.0934 10.34 96.1734 10.6667L96.6334 12.6733C96.8267 13.5067 96.7067 14.1333 96.2934 14.4333C96.1267 14.5533 95.9267 14.6133 95.6934 14.6133C95.3534 14.6133 94.9534 14.4867 94.5134 14.2267L92.56 13.0667C92.2534 12.8867 91.7467 12.8867 91.44 13.0667L89.4867 14.2267C88.7467 14.66 88.1134 14.7333 87.7067 14.4333C87.5534 14.32 87.44 14.1667 87.3667 13.9667L95.4734 5.86001C95.78 5.55335 96.2134 5.41335 96.6334 5.48668L97.3067 5.60001C98.0134 5.72001 98.4867 6.04001 98.64 6.50668C98.7867 6.97335 98.5867 7.51335 98.08 8.02001L96.4667 9.64001Z" fill="#F2D374"/>
</svg>
